<svg width="159" height="25" viewBox="0 0 159 25" fill="none" xmlns="http://www.w3.org/2000/svg">
<path d="M0.28 15.496V13.384L7 7.592H10.968L3.32 14.408L10.968 21.032H6.744L0.28 15.496Z" fill="#00F6FF"/>
<path d="M14.1083 9H16.5083V7.272C16.5083 6.20533 16.5829 5.256 16.7323 4.424C16.9029 3.592 17.1803 2.888 17.5643 2.312C17.9483 1.736 18.4496 1.29866 19.0683 0.999998C19.6869 0.701331 20.4549 0.551998 21.3723 0.551998C22.0763 0.551998 22.7483 0.647998 23.3883 0.839998C24.0283 1.01067 24.6363 1.30933 25.2123 1.736L24.4443 3.496C24.0603 3.32533 23.6229 3.19733 23.1323 3.112C22.6629 3.02667 22.2256 2.984 21.8203 2.984C21.4149 2.984 21.0629 3.048 20.7643 3.176C20.4869 3.28267 20.2523 3.496 20.0603 3.816C19.8896 4.136 19.7616 4.57333 19.6763 5.128C19.5909 5.68267 19.5483 6.39733 19.5483 7.272V9H22.8763V11.336H19.5483V22.44L22.8763 22.888V25H14.1083V23.08L16.5083 22.44V11.336H14.1083V9Z" fill="#009CFF"/>
<path d="M31.496 24.24C30.856 24.24 30.304 24.152 29.84 23.976C29.376 23.784 28.992 23.528 28.688 23.208C28.384 22.888 28.16 22.52 28.016 22.104C27.872 21.672 27.8 21.216 27.8 20.736V13.92L26.36 13.44V12H30.104V19.152C30.104 19.664 30.128 20.136 30.176 20.568C30.224 20.984 30.32 21.344 30.464 21.648C30.624 21.936 30.84 22.16 31.112 22.32C31.384 22.48 31.736 22.56 32.168 22.56C32.632 22.56 33.024 22.472 33.344 22.296C33.68 22.12 33.952 21.888 34.16 21.6C34.368 21.296 34.52 20.96 34.616 20.592C34.712 20.224 34.76 19.848 34.76 19.464V13.92L32.6 13.44V12H37.04V22.08L38.864 22.56V24H35.24L34.76 22.008C34.6 22.76 34.232 23.32 33.656 23.688C33.08 24.056 32.36 24.24 31.496 24.24ZM43.1799 22.512L42.6999 24H41.3559V20.28H43.4199C43.4199 21.128 43.6279 21.744 44.0439 22.128C44.4759 22.496 44.9799 22.68 45.5559 22.68C45.9879 22.68 46.3959 22.568 46.7799 22.344C47.1639 22.104 47.3559 21.728 47.3559 21.216C47.3559 20.8 47.2119 20.472 46.9239 20.232C46.6359 19.976 46.2759 19.752 45.8439 19.56C45.4279 19.368 44.9719 19.176 44.4759 18.984C43.9799 18.792 43.5159 18.544 43.0839 18.24C42.6679 17.936 42.3159 17.552 42.0279 17.088C41.7399 16.608 41.5959 15.992 41.5959 15.24C41.5959 14.616 41.6919 14.088 41.8839 13.656C42.0919 13.208 42.3559 12.848 42.6759 12.576C42.9959 12.288 43.3479 12.08 43.7319 11.952C44.1319 11.824 44.5239 11.76 44.9079 11.76C45.1799 11.76 45.4439 11.792 45.6999 11.856C45.9559 11.92 46.1879 12.024 46.3959 12.168C46.6199 12.312 46.8039 12.496 46.9479 12.72C47.0919 12.944 47.1879 13.208 47.2359 13.512H47.3319L47.8119 12H49.1559V15.744H47.1159C47.0999 14.992 46.9159 14.4 46.5639 13.968C46.2119 13.536 45.7319 13.32 45.1239 13.32C44.6919 13.32 44.3399 13.448 44.0679 13.704C43.8119 13.96 43.6839 14.304 43.6839 14.736C43.6839 15.184 43.8279 15.536 44.1159 15.792C44.4039 16.048 44.7559 16.28 45.1719 16.488C45.6039 16.68 46.0679 16.872 46.5639 17.064C47.0759 17.256 47.5399 17.504 47.9559 17.808C48.3879 18.096 48.7479 18.472 49.0359 18.936C49.3239 19.384 49.4679 19.976 49.4679 20.712C49.4679 21.32 49.3639 21.848 49.1559 22.296C48.9479 22.744 48.6759 23.112 48.3399 23.4C48.0199 23.688 47.6439 23.896 47.2119 24.024C46.7959 24.168 46.3719 24.24 45.9399 24.24C45.6519 24.24 45.3559 24.208 45.0519 24.144C44.7639 24.08 44.4999 23.976 44.2599 23.832C44.0199 23.688 43.8119 23.512 43.6359 23.304C43.4599 23.08 43.3399 22.816 43.2759 22.512H43.1799ZM52.3231 22.56L54.0751 22.08V13.776L52.2751 13.296V12H56.3551V22.08L58.1551 22.56V24H52.3231V22.56ZM55.1311 9.624C54.6831 9.624 54.3151 9.48 54.0271 9.192C53.7391 8.904 53.5951 8.536 53.5951 8.088C53.5951 7.64 53.7391 7.28 54.0271 7.008C54.3151 6.72 54.6831 6.576 55.1311 6.576C55.5791 6.576 55.9471 6.72 56.2351 7.008C56.5231 7.28 56.6671 7.64 56.6671 8.088C56.6671 8.536 56.5231 8.904 56.2351 9.192C55.9471 9.48 55.5791 9.624 55.1311 9.624ZM65.6703 24.24C64.7263 24.24 63.9343 24.088 63.2943 23.784C62.6543 23.48 62.1423 23.056 61.7583 22.512C61.3743 21.952 61.0943 21.296 60.9183 20.544C60.7583 19.776 60.6783 18.928 60.6783 18C60.6783 17.072 60.7583 16.232 60.9183 15.48C61.0943 14.712 61.3743 14.056 61.7583 13.512C62.1423 12.952 62.6543 12.52 63.2943 12.216C63.9343 11.912 64.7263 11.76 65.6703 11.76C66.6143 11.76 67.4063 11.912 68.0463 12.216C68.6863 12.52 69.1983 12.952 69.5823 13.512C69.9663 14.056 70.2383 14.712 70.3983 15.48C70.5743 16.232 70.6623 17.072 70.6623 18C70.6623 18.928 70.5743 19.776 70.3983 20.544C70.2383 21.296 69.9663 21.952 69.5823 22.512C69.1983 23.056 68.6863 23.48 68.0463 23.784C67.4063 24.088 66.6143 24.24 65.6703 24.24ZM65.6703 22.8C66.2143 22.8 66.6463 22.664 66.9663 22.392C67.3023 22.12 67.5503 21.76 67.7103 21.312C67.8863 20.848 67.9983 20.336 68.0463 19.776C68.0943 19.2 68.1183 18.608 68.1183 18C68.1183 17.408 68.0943 16.824 68.0463 16.248C67.9983 15.672 67.8863 15.16 67.7103 14.712C67.5503 14.248 67.3023 13.88 66.9663 13.608C66.6463 13.336 66.2143 13.2 65.6703 13.2C65.1103 13.2 64.6703 13.336 64.3503 13.608C64.0303 13.88 63.7823 14.248 63.6063 14.712C63.4463 15.16 63.3423 15.672 63.2943 16.248C63.2463 16.824 63.2223 17.408 63.2223 18C63.2223 18.608 63.2463 19.2 63.2943 19.776C63.3423 20.336 63.4463 20.848 63.6063 21.312C63.7823 21.76 64.0303 22.12 64.3503 22.392C64.6703 22.664 65.1103 22.8 65.6703 22.8ZM82.5434 16.632C82.5434 16.2 82.5194 15.792 82.4714 15.408C82.4234 15.024 82.3194 14.688 82.1594 14.4C82.0154 14.112 81.7994 13.88 81.5114 13.704C81.2234 13.528 80.8394 13.44 80.3594 13.44C79.8954 13.44 79.4874 13.544 79.1354 13.752C78.7994 13.96 78.5194 14.232 78.2954 14.568C78.0714 14.904 77.9034 15.272 77.7914 15.672C77.6954 16.072 77.6474 16.464 77.6474 16.848V22.08L79.4474 22.56V24H73.5674V22.56L75.3674 22.08V13.92L73.5434 13.44V12H77.1674L77.6474 13.92C77.8074 13.2 78.1994 12.664 78.8234 12.312C79.4634 11.944 80.2234 11.76 81.1034 11.76C81.9194 11.76 82.5674 11.904 83.0474 12.192C83.5434 12.48 83.9194 12.856 84.1754 13.32C84.4474 13.784 84.6234 14.312 84.7034 14.904C84.7994 15.48 84.8474 16.064 84.8474 16.656V22.08L86.6474 22.56V24H82.5434V16.632Z" fill="#00F6FF"/>
<path d="M91.12 19.92H95.48V24H91.12V19.92Z" fill="white"/>
<path d="M101.312 22.56L103.064 22.08V7.8L101.264 7.32V5.88H105.344V22.08L107.144 22.56V24H101.312V22.56ZM113.181 24.24C112.781 24.24 112.357 24.184 111.909 24.072C111.477 23.976 111.077 23.8 110.709 23.544C110.341 23.272 110.037 22.912 109.797 22.464C109.557 22 109.437 21.416 109.437 20.712C109.437 20.2 109.517 19.736 109.677 19.32C109.837 18.888 110.093 18.52 110.445 18.216C110.797 17.912 111.253 17.672 111.813 17.496C112.389 17.304 113.093 17.184 113.925 17.136L116.421 17.016V15.936C116.421 15.248 116.285 14.664 116.013 14.184C115.741 13.688 115.229 13.44 114.477 13.44C114.061 13.44 113.709 13.512 113.421 13.656C113.133 13.8 112.893 13.992 112.701 14.232C112.525 14.472 112.389 14.744 112.293 15.048C112.213 15.336 112.173 15.624 112.173 15.912H110.133V12H111.693L112.173 13.512H112.269C112.589 12.888 113.021 12.44 113.565 12.168C114.109 11.896 114.741 11.76 115.461 11.76C116.485 11.76 117.277 12.016 117.837 12.528C118.413 13.04 118.701 13.864 118.701 15V22.08L120.501 22.56V24H116.901L116.421 22.272C116.293 22.688 116.101 23.024 115.845 23.28C115.589 23.536 115.309 23.736 115.005 23.88C114.701 24.024 114.381 24.12 114.045 24.168C113.725 24.216 113.437 24.24 113.181 24.24ZM113.829 22.56C114.309 22.56 114.717 22.464 115.053 22.272C115.389 22.064 115.653 21.808 115.845 21.504C116.053 21.184 116.197 20.832 116.277 20.448C116.373 20.048 116.421 19.656 116.421 19.272V18.264L114.285 18.384C113.773 18.416 113.357 18.496 113.037 18.624C112.717 18.752 112.461 18.92 112.269 19.128C112.077 19.32 111.941 19.544 111.861 19.8C111.797 20.04 111.765 20.296 111.765 20.568C111.765 20.968 111.829 21.296 111.957 21.552C112.085 21.808 112.245 22.016 112.437 22.176C112.629 22.32 112.845 22.424 113.085 22.488C113.341 22.536 113.589 22.56 113.829 22.56ZM125.757 24H122.157V22.56L123.957 22.08V7.8L122.133 7.32V5.88H126.237V13.896C126.413 13.192 126.781 12.664 127.341 12.312C127.917 11.944 128.645 11.76 129.525 11.76C130.309 11.76 130.965 11.928 131.493 12.264C132.021 12.584 132.445 13.024 132.765 13.584C133.085 14.144 133.309 14.808 133.437 15.576C133.565 16.328 133.629 17.136 133.629 18C133.629 18.864 133.557 19.68 133.413 20.448C133.285 21.2 133.061 21.856 132.741 22.416C132.437 22.976 132.013 23.424 131.469 23.76C130.941 24.08 130.285 24.24 129.501 24.24C128.605 24.24 127.893 24.064 127.365 23.712C126.837 23.36 126.461 22.88 126.237 22.272L125.757 24ZM128.925 13.44C128.029 13.44 127.357 13.736 126.909 14.328C126.461 14.904 126.237 15.6 126.237 16.416V19.368C126.237 19.784 126.293 20.184 126.405 20.568C126.517 20.936 126.685 21.272 126.909 21.576C127.133 21.88 127.413 22.12 127.749 22.296C128.085 22.472 128.477 22.56 128.925 22.56C129.373 22.56 129.741 22.44 130.029 22.2C130.333 21.944 130.565 21.608 130.725 21.192C130.901 20.776 131.021 20.296 131.085 19.752C131.149 19.208 131.181 18.632 131.181 18.024C131.181 17.432 131.149 16.856 131.085 16.296C131.021 15.736 130.901 15.248 130.725 14.832C130.565 14.416 130.333 14.08 130.029 13.824C129.741 13.568 129.373 13.44 128.925 13.44ZM138.627 22.512L138.147 24H136.803V20.28H138.867C138.867 21.128 139.075 21.744 139.491 22.128C139.923 22.496 140.427 22.68 141.003 22.68C141.435 22.68 141.843 22.568 142.227 22.344C142.611 22.104 142.803 21.728 142.803 21.216C142.803 20.8 142.659 20.472 142.371 20.232C142.083 19.976 141.723 19.752 141.291 19.56C140.875 19.368 140.419 19.176 139.923 18.984C139.427 18.792 138.963 18.544 138.531 18.24C138.115 17.936 137.763 17.552 137.475 17.088C137.187 16.608 137.043 15.992 137.043 15.24C137.043 14.616 137.139 14.088 137.331 13.656C137.539 13.208 137.803 12.848 138.123 12.576C138.443 12.288 138.795 12.08 139.179 11.952C139.579 11.824 139.971 11.76 140.355 11.76C140.627 11.76 140.891 11.792 141.147 11.856C141.403 11.92 141.635 12.024 141.843 12.168C142.067 12.312 142.251 12.496 142.395 12.72C142.539 12.944 142.635 13.208 142.683 13.512H142.779L143.259 12H144.603V15.744H142.563C142.547 14.992 142.363 14.4 142.011 13.968C141.659 13.536 141.179 13.32 140.571 13.32C140.139 13.32 139.787 13.448 139.515 13.704C139.259 13.96 139.131 14.304 139.131 14.736C139.131 15.184 139.275 15.536 139.563 15.792C139.851 16.048 140.203 16.28 140.619 16.488C141.051 16.68 141.515 16.872 142.011 17.064C142.523 17.256 142.987 17.504 143.403 17.808C143.835 18.096 144.195 18.472 144.483 18.936C144.771 19.384 144.915 19.976 144.915 20.712C144.915 21.32 144.811 21.848 144.603 22.296C144.395 22.744 144.123 23.112 143.787 23.4C143.467 23.688 143.091 23.896 142.659 24.024C142.243 24.168 141.819 24.24 141.387 24.24C141.099 24.24 140.803 24.208 140.499 24.144C140.211 24.08 139.947 23.976 139.707 23.832C139.467 23.688 139.259 23.512 139.083 23.304C138.907 23.08 138.787 22.816 138.723 22.512H138.627Z" fill="white"/>
<path d="M152.408 22.032H148.184L155.832 15.408L148.184 8.592H152.152L158.872 14.384V16.496L152.408 22.032Z" fill="#00F6FF"/>
</svg>
